<svg width="34" height="34" viewBox="0 0 34 34" fill="none" xmlns="http://www.w3.org/2000/svg">
<path d="M11.6667 32.338V19.338C11.6667 17.6812 13.0098 16.338 14.6667 16.338H19.3333C20.9902 16.338 22.3333 17.6812 22.3333 19.338V32.338M33 29.138V13.1C33 12.121 32.5224 11.2037 31.7204 10.6423L18.7204 1.54228C17.6874 0.819211 16.3126 0.81921 15.2796 1.54228L2.27961 10.6423C1.47763 11.2037 1 12.121 1 13.1V29.138C1 29.9867 1.3746 30.8006 2.0414 31.4008C2.70819 32.0009 3.61256 32.338 4.55556 32.338H29.4444C30.3874 32.338 31.2918 32.0009 31.9586 31.4008C32.6254 30.8006 33 29.9867 33 29.138Z" stroke="white" stroke-width="2" stroke-linecap="round" stroke-linejoin="round"/>
</svg>
