<svg width="711" height="1466" viewBox="0 0 711 1466" fill="none" xmlns="http://www.w3.org/2000/svg">
<path fill-rule="evenodd" clip-rule="evenodd" d="M846.258 -117.886C968.563 -85.8 1108.2 -141.543 1210.64 -55.6646C1327.7 42.4782 1441.2 190.929 1442.62 382.09C1444.02 571.81 1297.34 715.54 1217.61 885.616C1140.11 1050.96 1107.17 1258.9 982.596 1363.45C853.094 1472.13 691.998 1486.33 553.378 1443.07C421.521 1401.91 339.78 1256.53 246.652 1133.77C149.524 1005.73 -8.40792 905.387 0.349296 714.062C9.20228 520.645 204.549 423.983 286.976 252.781C364.87 90.9965 335.891 -165.61 465.111 -251.251C594.397 -336.936 713.322 -152.761 846.258 -117.886Z" fill="#686DE0"/>
</svg>
