<svg width="454" height="1380" viewBox="0 0 454 1380" fill="none" xmlns="http://www.w3.org/2000/svg">
<path fill-rule="evenodd" clip-rule="evenodd" d="M-219.457 1271.16C-327.987 1251.92 -445.119 1303.6 -540.347 1240.44C-649.174 1168.25 -758.603 1055.77 -773.865 903.414C-789.013 752.209 -672.226 629.998 -615.501 490.251C-560.355 354.394 -547.029 186.881 -446.558 97.0578C-342.114 3.68294 -203.308 -15.9894 -79.7951 11.3195C37.6926 37.2961 119.325 148.985 209.182 242.043C302.899 339.097 447.368 410.921 453.811 563.932C460.324 718.616 297.837 805.82 238.85 946.604C183.107 1079.65 227.1 1282.75 121.211 1357.74C15.2666 1432.77 -101.494 1292.08 -219.457 1271.16Z" fill="#686DE0"/>
</svg>
