<svg width="30" height="30" viewBox="0 0 30 30" fill="none" xmlns="http://www.w3.org/2000/svg">
<path d="M30 15C30 23.2843 23.2843 30 15 30C6.71573 30 0 23.2843 0 15C0 6.71573 6.71573 0 15 0C23.2843 0 30 6.71573 30 15Z" fill="url(#paint0_linear_1_376)"/>
<path d="M20.5861 19.5874L21.2524 15.3537H17.0842V12.6075C17.0842 11.449 17.6654 10.319 19.5323 10.319H21.4286V6.71463C21.4286 6.71463 19.7084 6.42857 18.0646 6.42857C14.6302 6.42857 12.3875 8.45672 12.3875 12.1269V15.3537H8.57143V19.5874H12.3875V29.8227C13.1536 29.9399 13.9374 30 14.7358 30C15.5343 30 16.318 29.9399 17.0842 29.8227V19.5874H20.5861Z" fill="white"/>
<defs>
<linearGradient id="paint0_linear_1_376" x1="15" y1="0" x2="15" y2="29.911" gradientUnits="userSpaceOnUse">
<stop stop-color="#18ACFE"/>
<stop offset="1" stop-color="#0163E0"/>
</linearGradient>
</defs>
</svg>
